<svg xmlns="http://www.w3.org/2000/svg" version="1.1" xmlns:xlink="http://www.w3.org/1999/xlink" xmlns:svgjs="http://svgjs.dev/svgjs" width="1500" height="1500" viewBox="0 0 1500 1500"><rect width="1500" height="1500" fill="#ffffff"></rect><g transform="matrix(0.6666666666666666,0,0,0.6666666666666666,249.86881360197117,256.4)"><svg viewBox="0 0 250 247" data-background-color="#ffffff" preserveAspectRatio="xMidYMid meet" height="1482" width="1500" xmlns="http://www.w3.org/2000/svg" xmlns:xlink="http://www.w3.org/1999/xlink"><g id="tight-bounds" transform="matrix(1,0,0,1,0.0327965995072077,-0.09999999999999432)"><svg viewBox="0 0 249.93440680098556 247.2" height="247.2" width="249.93440680098556"><g><svg viewBox="0 0 395.52 391.19281435249934" height="247.2" width="249.93440680098556"><g transform="matrix(1,0,0,1,0,277.33620271044896)"><svg viewBox="0 0 395.52 113.85661164205038" height="113.85661164205038" width="395.52"><g id="textblocktransform"><svg viewBox="0 0 395.52 113.85661164205038" height="113.85661164205038" width="395.52" id="textblock"><g><svg viewBox="0 0 395.52 113.85661164205038" height="113.85661164205038" width="395.52"><g transform="matrix(1,0,0,1,0,0)"><svg width="395.52" viewBox="0 -30.05 172.32 49.7" height="113.85661164205038" data-palette-color="#2257bf"><g class="wordmark-text-0" data-fill-palette-color="primary" id="text-0"><path d="M12.2 6.1L12.2 6.1Q11.55 6.1 11.55 5.4L11.55 5.4Q11.55 4.8 12.3 3.3L12.3 3.3Q13 1.95 14.65-0.23 16.3-2.4 18.8-5.35L18.8-5.35Q19.8-7.55 20.65-9.85 21.5-12.15 22.2-14.6L22.2-14.6Q23.15-17.95 23.63-20.03 24.1-22.1 24.1-23.55L24.1-23.55Q24.1-26.45 21.9-26.45L21.9-26.45Q18.15-26.45 14.15-23.75L14.15-23.75Q11.55-21.95 9.25-19.55 6.95-17.15 5.23-14.58 3.5-12 2.6-9.65L2.6-9.65Q2.1-8.5 2.1-7.6L2.1-7.6Q2.1-6 3.85-6L3.85-6Q4.75-6 6.45-6.6L6.45-6.6Q8.1-7.2 9.95-8.3 11.8-9.4 13.6-10.8 15.4-12.2 16.8-13.65L16.8-13.65Q17.5-14.35 17.95-14.35L17.95-14.35Q18.2-14.35 18.2-14.1L18.2-14.1Q18.2-13.8 17.75-13.35L17.75-13.35Q16.15-11.75 13.95-10.08 11.75-8.4 9.5-7.05 7.25-5.7 5.3-4.95L5.3-4.95Q3.7-4.3 2.3-4.3L2.3-4.3Q0-4.3 0-6.5L0-6.5Q0-7.9 0.8-9.85L0.8-9.85Q2.25-13.4 5.9-17.75L5.9-17.75Q8.4-20.65 11.28-23.03 14.15-25.4 17.1-26.8 20.05-28.2 22.65-28.2L22.65-28.2Q26.3-28.2 26.3-23.8L26.3-23.8Q26.3-22.15 25.85-20.1 25.4-18.05 24.6-15.4L24.6-15.4Q24.5-15.1 24.4-14.78 24.3-14.45 24.2-14.1L24.2-14.1Q23.95-13.15 23.6-12.08 23.25-11 22.75-9.75L22.75-9.75Q23.85-10.9 24.98-11.93 26.1-12.95 27.25-13.9L27.25-13.9Q28.05-14.55 29.1-15.38 30.15-16.2 31.5-17.2L31.5-17.2Q33.4-18.65 34.75-18.65L34.75-18.65Q35.35-18.65 35.68-18.32 36-18 35.75-17.65L35.75-17.65 34.45-15.5Q33.5-13.9 32.9-12.9 32.3-11.9 32.1-11.5L32.1-11.5Q31.3-10.1 30.4-8.33 29.5-6.55 28.88-4.95 28.25-3.35 28.25-2.35L28.25-2.35Q28.25-1.25 29.15-1.25L29.15-1.25Q29.95-1.25 31.4-2.23 32.85-3.2 34.2-4.45L34.2-4.45Q37.85-7.8 40.53-11.08 43.2-14.35 45.2-18.6L45.2-18.6Q46.15-20.55 46.15-22.05L46.15-22.05Q46.15-24.35 43.55-24.4L43.55-24.4Q42.9-24.4 42.9-24.7L42.9-24.7Q42.9-24.9 43.15-25.15L43.15-25.15Q43.85-25.85 44.95-25.85L44.95-25.85Q46.2-25.85 47.05-25.03 47.9-24.2 47.9-22.65L47.9-22.65Q47.9-21 46.75-18.45L46.75-18.45Q45.95-16.8 45.13-15.35 44.3-13.9 43.4-12.65L43.4-12.65Q42.2-11 41.08-9.68 39.95-8.35 38.55-6.95 37.15-5.55 35.05-3.55L35.05-3.55Q34.1-2.65 32.88-1.8 31.65-0.95 30.45-0.43 29.25 0.1 28.35 0.1L28.35 0.1Q26.65 0.1 26.65-1.9L26.65-1.9Q26.65-3 27.25-4.8L27.25-4.8Q27.5-5.65 27.95-6.7 28.4-7.75 28.95-9L28.95-9Q29.3-9.7 29.8-10.73 30.3-11.75 30.95-13L30.95-13Q30.95-13 31.6-14.2L31.6-14.2Q32.2-15.35 32.2-15.85L32.2-15.85Q32.2-16.1 32.05-16.1L32.05-16.1Q31.9-16.1 31.45-15.8L31.45-15.8Q28.7-13.85 26.8-12.3 24.9-10.75 23.2-8.95L23.2-8.95Q22.5-8.15 21.75-7.2 21-6.25 20.2-5.15L20.2-5.15Q18.55-1.35 16.95 1.48 15.35 4.3 14.2 5.2L14.2 5.2Q13 6.1 12.2 6.1ZM50 1.35L50 1.35Q49.9 1.35 49.8 1.33 49.7 1.3 49.6 1.25L49.6 1.25Q48.9 0.9 48.7 0.25 48.5-0.4 48.6-1.4L48.6-1.4Q48.7-1.8 48.82-2.8 48.95-3.8 49.15-4.4L49.15-4.4 46.6-1.95 45.2-0.6Q43.75 0.85 42.8 0.85L42.8 0.85Q42.4 0.85 42.15 0.55L42.15 0.55Q41.7 0 41.7-0.8L41.7-0.8Q41.7-1.85 42.25-3.05 42.8-4.25 43.55-5.38 44.3-6.5 44.9-7.25L44.9-7.25Q46.4-9.1 47.82-10.15 49.25-11.2 50.8-11.2L50.8-11.2Q51.65-11.2 52.47-10.9 53.3-10.6 54-9.9L54-9.9 54.05-9.85Q54.05-9.7 53.8-9.55L53.8-9.55Q53.7-9.45 53.62-9.4 53.55-9.35 53.5-9.3L53.5-9.3Q52.9-8.7 52.15-7.3 51.4-5.9 50.85-4.38 50.3-2.85 50.3-1.75L50.3-1.75Q50.3-0.75 50.8-0.4L50.8-0.4Q51.05-0.25 51.35-0.25L51.35-0.25Q52-0.25 53.15-1.05L53.15-1.05Q53.2-1.1 53.37-1.23 53.55-1.35 53.9-1.6L53.9-1.6Q54.3-1.9 54.55-1.9L54.55-1.9Q54.8-1.9 54.8-1.7L54.8-1.7Q54.8-1.4 54.4-1L54.4-1Q54.1-0.75 53.72-0.45 53.35-0.15 52.85 0.15L52.85 0.15Q52.1 0.7 51.3 1.03 50.5 1.35 50 1.35ZM44.35-1.85L44.35-1.85Q45.4-1.85 48.25-4.95L48.25-4.95Q49-5.8 49.6-6.58 50.2-7.35 50.7-8.1L50.7-8.1Q51.6-9.55 51.3-10.1L51.3-10.1Q51.15-10.4 50.7-10.4L50.7-10.4Q50.15-10.4 49.2-9.83 48.25-9.25 47.27-8.35 46.3-7.45 45.5-6.55L45.5-6.55Q44.95-5.85 44.4-4.6 43.85-3.35 43.85-2.55L43.85-2.55Q43.85-1.85 44.35-1.85ZM56.95 0.8L56.95 0.8Q56.05 0.8 56.05 0.1L56.05 0.1Q56.05-0.35 56.37-1.05 56.7-1.75 57.05-2.4L57.05-2.4Q58-4.1 58.8-5.7 59.6-7.3 60.35-9.1L60.35-9.1Q60.7-9.9 61.4-9.9L61.4-9.9Q62.15-9.9 61.85-9L61.85-9Q61.55-8.25 61.25-7.65L61.25-7.65Q59.85-4.8 59.85-3.8L59.85-3.8Q59.85-3.35 60.15-3.25L60.15-3.25Q60.85-3.8 61.2-4.08 61.55-4.35 61.6-4.4L61.6-4.4Q62.3-4.95 63.17-5.68 64.05-6.4 65.1-7.35L65.1-7.35Q66.75-8.85 67.85-8.85L67.85-8.85Q69.2-8.85 69-6.4L69-6.4Q68.95-5.45 69-4.55L69-4.55Q69.05-4.35 69.05-3.98 69.05-3.6 69.05-3.1L69.05-3.1Q69.05-2.6 69.65-2.6L69.65-2.6Q70.35-2.6 70.95-3L70.95-3 72.05-3.75 73.15-4.45Q73.25-4.5 73.5-4.5L73.5-4.5Q73.8-4.5 73.5-4.05L73.5-4.05Q70.35-0.15 68.3-0.15L68.3-0.15Q67.9-0.15 67.5-0.3L67.5-0.3Q67.15-0.45 67-1.18 66.85-1.9 66.82-2.75 66.8-3.6 66.8-4.05L66.8-4.05 66.85-5.7Q66.85-6.75 66.3-6.75L66.3-6.75Q65-6.75 59.9-1.4L59.9-1.4Q59.5-0.9 58.65-0.05 57.8 0.8 56.95 0.8ZM81.99 3.75L81.99 3.75Q81.24 3.75 80.89 3L80.89 3Q80.84 2.95 80.84 2.7L80.84 2.7Q80.84 2.45 81.09 1.55L81.09 1.55Q81.19 1.3 81.27 1.05 81.34 0.8 81.44 0.55L81.44 0.55Q81.54 0.3 81.64-0.03 81.74-0.35 81.84-0.7L81.84-0.7Q82.04-1.45 82.04-1.95L82.04-1.95Q82.04-2.65 81.59-2.65L81.59-2.65Q81.44-2.65 81.04-2.4L81.04-2.4Q80.39-1.9 79.67-1.45 78.94-1 78.14-0.6L78.14-0.6 76.54 0.25 75.49 0.85Q75.34 0.9 74.79 1.3L74.79 1.3Q74.29 1.6 73.74 1.6L73.74 1.6Q73.09 1.6 72.29 0.9L72.29 0.9Q71.69 0.3 71.69-0.35L71.69-0.35Q71.69-0.9 72.24-1.9L72.24-1.9Q72.64-2.55 73.59-3.5L73.59-3.5Q73.99-3.9 74.27-4.23 74.54-4.55 74.74-4.75L74.74-4.75Q76.84-7.55 81.24-9.7L81.24-9.7Q82.49-10.35 83.49-10.35L83.49-10.35Q84.59-10.35 85.24-9.45L85.24-9.45Q85.54-10.05 86.22-11.18 86.89-12.3 87.72-13.65 88.54-15 89.32-16.2 90.09-17.4 90.54-18.05L90.54-18.05Q91.89-19.9 92.74-20.85L92.74-20.85Q93.59-21.75 94.29-21.75L94.29-21.75Q94.54-21.75 94.94-21.5L94.94-21.5Q95.29-21.2 95.29-20.7L95.29-20.7Q95.29-19.95 94.64-18.95 93.99-17.95 92.84-16.5L92.84-16.5Q92.74-16.35 92.54-16.13 92.34-15.9 92.09-15.55L92.09-15.55Q91.54-14.75 90.94-13.88 90.34-13 89.64-12.15L89.64-12.15Q88.64-10.85 87.54-9.33 86.44-7.8 85.49-6.15L85.49-6.15Q84.64-4.65 84.04-3.08 83.44-1.5 83.04 0.1L83.04 0.1Q82.99 0.45 82.97 0.68 82.94 0.9 82.94 1L82.94 1 82.99 1.75Q83.04 1.9 83.04 2.45L83.04 2.45Q83.04 3.75 81.99 3.75ZM75.14-0.55L75.14-0.55Q75.69-0.55 76.14-0.75L76.14-0.75Q78.04-1.4 79.74-2.4 81.44-3.4 83.34-5.1L83.34-5.1Q83.59-5.8 83.94-6.6 84.29-7.4 84.69-8.35L84.69-8.35Q84.09-9.6 82.94-9.6L82.94-9.6Q82.19-9.6 81.34-9.1 80.49-8.6 79.44-7.75L79.44-7.75Q78.44-6.95 77.42-5.95 76.39-4.95 75.64-4.03 74.89-3.1 74.59-2.5L74.59-2.5Q74.29-2 74.29-1.35L74.29-1.35Q74.29-0.55 75.14-0.55ZM90.49 0.55L90.49 0.55Q89.44 0.55 88.64 0L88.64 0Q87.34-1 87.34-3L87.34-3Q87.34-5 88.74-7.25 90.14-9.5 92.99-11.4L92.99-11.4Q93.49-11.75 94.34-11.75L94.34-11.75Q95.44-11.75 96.32-11.15 97.19-10.55 96.99-9.6L96.99-9.6Q96.64-8.05 95.47-6.85 94.29-5.65 92.72-4.73 91.14-3.8 89.49-2.95L89.49-2.95Q89.44-2.8 89.42-2.65 89.39-2.5 89.39-2.35L89.39-2.35Q89.39-1.65 89.87-1.13 90.34-0.6 91.19-0.6L91.19-0.6Q91.84-0.6 92.29-0.8L92.29-0.8Q93.09-1.1 93.62-1.35 94.14-1.6 94.84-2.1 95.54-2.6 96.74-3.6L96.74-3.6Q97.29-4 97.39-4L97.39-4Q97.69-4 97.59-3.55L97.59-3.55Q97.09-2.75 95.87-1.8 94.64-0.85 93.17-0.15 91.69 0.55 90.49 0.55ZM89.79-4.3L89.79-4.3Q90.19-4.3 91.44-5.1 92.69-5.9 93.79-6.85L93.79-6.85Q95.69-8.6 95.69-9.55L95.69-9.55Q95.69-9.8 95.54-10L95.54-10Q95.39-10.25 95.09-10.25L95.09-10.25Q94.14-10.25 91.89-8L91.89-8Q90.34-6.5 89.79-4.3ZM97.54 1.05L97.54 1.05Q96.89 1.05 96.89-0.1L96.89-0.1Q96.89-1.05 97.34-1.95L97.34-1.95Q98.49-4.15 99.44-6.3L99.44-6.3Q100.09-7.6 100.66-8.8 101.24-10 101.74-11L101.74-11Q102.04-11.3 102.34-11.3L102.34-11.3Q102.99-11.3 102.74-10.7L102.74-10.7Q102.64-10.35 102.46-9.88 102.29-9.4 102.04-8.75L102.04-8.75Q101.24-6.65 101.09-5.8L101.09-5.8Q102.49-7.05 103.96-8.13 105.44-9.2 106.74-9.9 108.04-10.6 108.94-10.6L108.94-10.6Q109.74-10.6 109.74-9.95L109.74-9.95Q109.74-9.4 109.24-8.78 108.74-8.15 108.24-8.15L108.24-8.15Q107.99-8.15 107.84-8.3L107.84-8.3Q107.69-8.35 107.24-8.35L107.24-8.35Q105.64-8.35 103.89-6.8L103.89-6.8Q102.04-5.25 100.54-3.08 99.04-0.9 98.34 0.7L98.34 0.7Q97.99 1.05 97.54 1.05ZM117.09 3.45L117.09 3.45Q115.89 3.45 115.89 2.5L115.89 2.5Q115.89 1.55 117.14 0.15L117.14 0.15Q118.29-1.1 120.89-2.53 123.49-3.95 126.84-5.05L126.84-5.05Q127.59-5.3 128.04-5.3L128.04-5.3Q128.64-5.3 128.64-5.05L128.64-5.05Q128.64-4.8 128.04-4.65L128.04-4.65Q125.94-4.1 123.89-3.08 121.84-2.05 120.24-0.9L120.24-0.9Q117.69 0.95 117.69 1.65L117.69 1.65Q117.69 2.05 118.49 2.05L118.49 2.05Q120.24 2.05 123.89-0.1L123.89-0.1Q126.29-1.5 128.44-3.28 130.59-5.05 131.91-6.8 133.24-8.55 133.24-9.95L133.24-9.95Q133.24-11.55 131.34-12.45L131.34-12.45Q129.54-11.5 127.59-10.63 125.64-9.75 123.89-9.05 122.14-8.35 120.86-8 119.59-7.65 119.14-7.75L119.14-7.75Q117.64-8.05 117.64-8.85L117.64-8.85Q117.64-9.55 118.61-10.45 119.59-11.35 120.81-12.1 122.04-12.85 122.79-13.1L122.79-13.1Q125.64-14.1 128.24-14.1L128.24-14.1Q130.04-14.1 131.59-13.55L131.59-13.55Q133.39-14.45 135.31-16.1 137.24-17.75 138.74-19.65 140.24-21.55 140.69-23.2L140.69-23.2Q140.94-24.3 140.94-24.8L140.94-24.8Q140.94-26.75 139.31-27.68 137.69-28.6 134.94-28.6L134.94-28.6Q130.79-28.6 125.24-26.85L125.24-26.85Q121.54-25.7 118.41-24.13 115.29-22.55 113.39-20.93 111.49-19.3 111.34-17.85L111.34-17.85Q111.29-17.4 110.99-17.15 110.69-16.9 110.34-16.9L110.34-16.9Q109.74-16.9 109.74-17.65L109.74-17.65Q109.74-20.2 114.19-23.05L114.19-23.05Q116.44-24.55 119.21-25.83 121.99-27.1 124.99-28.05 127.99-29 130.86-29.53 133.74-30.05 136.14-30.05L136.14-30.05Q139.39-30.05 141.26-29 143.14-27.95 143.14-25.7L143.14-25.7Q143.14-24.85 142.84-23.8L142.84-23.8Q142.29-21.75 140.69-19.75 139.09-17.75 136.94-16.07 134.79-14.4 132.49-13.2L132.49-13.2Q135.29-11.4 135.29-9.15L135.29-9.15Q135.29-6.4 131.79-3.5L131.79-3.5Q130.04-2.05 127.94-0.8 125.84 0.45 123.74 1.4 121.64 2.35 119.89 2.9 118.14 3.45 117.09 3.45ZM114.19 1.85L114.19 1.85Q112.89 1.6 112.36 0.95 111.84 0.3 111.84-0.95L111.84-0.95Q111.84-1.2 111.89-1.7 111.94-2.2 112.04-3L112.04-3Q112.29-4.75 113.36-7.1 114.44-9.45 116.01-12.05 117.59-14.65 119.41-17.15 121.24-19.65 123.04-21.7L123.04-21.7 122.74-21.65Q122.49-21.65 122.49-21.9L122.49-21.9Q122.49-22.1 122.84-22.75L122.84-22.75Q123.44-23.85 124.24-24.4L124.24-24.4Q124.64-24.7 124.84-24.85 125.04-25 125.09-25.05L125.09-25.05Q125.34-25.3 125.89-25.3L125.89-25.3Q126.54-25.3 127.11-24.95 127.69-24.6 127.69-24.25L127.69-24.25Q127.69-24.1 127.44-23.85L127.44-23.85Q125.24-21.9 122.24-18L122.24-18Q120.19-15.35 118.39-12.65 116.59-9.95 115.41-7.7 114.24-5.45 114.04-4.05L114.04-4.05 113.79-3.05Q113.74-2.95 113.71-2.7 113.69-2.45 113.59-2.05L113.59-2.05Q113.39-1.4 113.39-0.75L113.39-0.75Q113.39 0.35 114.24 0.6L114.24 0.6Q114.89 0.7 114.89 1.35L114.89 1.35Q114.89 1.95 114.19 1.85ZM120.69-9.15L120.69-9.15Q120.89-9.05 121.09-9.05L121.09-9.05Q121.89-9.05 124.04-9.9L124.04-9.9Q125.44-10.45 127.01-11.18 128.59-11.9 130.29-12.8L130.29-12.8Q129.89-12.9 129.36-12.95 128.84-13 128.29-13L128.29-13Q126.24-13 124.19-12.1L124.19-12.1 124.14-12.1Q123.34-11.75 122.66-11.4 121.99-11.05 121.44-10.8L121.44-10.8Q120.39-10.3 120.39-9.65L120.39-9.65Q120.39-9.4 120.69-9.15ZM136.13 3.3L136.13 3.3Q135.58 3.3 135.21 2.95 134.83 2.6 134.88 2.1L134.88 2.1Q134.98 0.05 135.66-1.85 136.33-3.75 137.63-6.4L137.63-6.4Q137.78-6.75 137.91-7.03 138.03-7.3 138.13-7.5L138.13-7.5Q139.23-9.85 140.38-12 141.53-14.15 142.68-16.2L142.68-16.2 143.38-17.45Q144.58-19.6 145.48-20.93 146.38-22.25 147.28-22.85L147.28-22.85Q148.43-23.55 148.68-23.55L148.68-23.55Q149.08-23.55 149.48-22.85L149.48-22.85Q149.73-22.35 148.48-20.4L148.48-20.4Q147.83-19.4 146.86-17.9 145.88-16.4 144.53-14.5L144.53-14.5Q144.28-14.15 143.71-13.28 143.13-12.4 142.18-11L142.18-11Q141.23-9.6 140.53-8.47 139.83-7.35 139.38-6.5L139.38-6.5Q138.48-4.85 137.68-2.98 136.88-1.1 136.88-0.05L136.88-0.05Q136.88 0.9 137.63 0.9L137.63 0.9Q138.83 0.9 141.48-1.15L141.48-1.15Q141.78-1.1 141.78-0.85L141.78-0.85Q141.78-0.65 141.28-0.15L141.28-0.15Q140.83 0.3 140.16 0.83 139.48 1.35 138.58 2.05L138.58 2.05 137.78 2.65Q136.98 3.3 136.13 3.3ZM148.83-10.95L148.83-10.95Q148.18-10.95 148.18-11.25L148.18-11.25Q148.18-11.5 148.56-11.98 148.93-12.45 149.43-12.8L149.43-12.8Q150.53-13.5 151.16-14 151.78-14.5 152.68-15.7L152.68-15.7Q152.73-15.6 152.73-15.3L152.73-15.3Q152.73-14.65 152.21-13.73 151.68-12.8 151.03-12.05 150.38-11.3 149.88-11.1L149.88-11.1Q149.43-10.95 148.83-10.95ZM144.38 1.3L144.38 1.3Q143.98 1.3 143.63 1 143.28 0.7 143.28 0.2L143.28 0.2Q143.28-0.85 144.73-3.65L144.73-3.65 145.28-4.75Q145.38-4.85 145.56-5.25 145.73-5.65 146.08-6.3L146.08-6.3Q146.43-7 146.63-7.55 146.83-8.1 146.93-8.6L146.93-8.6Q146.93-8.65 147.13-8.8 147.33-8.95 147.53-9.05L147.53-9.05 147.83-9.1Q148.23-9.1 148.5-8.95 148.78-8.8 148.68-8.55L148.68-8.55Q148.33-7.8 148.08-7.25 147.83-6.7 147.68-6.3L147.68-6.3 147.63-6.3Q147.08-5.05 146.71-3.93 146.33-2.8 146.38-1.8L146.38-1.8 146.43-0.45Q146.38 0.05 146.08 0.4L146.08 0.4Q145.88 0.55 145.53 0.78 145.18 1 144.63 1.25L144.63 1.25Q144.58 1.3 144.38 1.3ZM149.63 4.65L149.63 4.65Q149.38 4.65 149.38 4.2L149.38 4.2Q149.38 4.1 149.4 3.93 149.43 3.75 149.48 3.55L149.48 3.55 151.63-1.85 154.18-8.15Q153.58-8.2 152.43-8.13 151.28-8.05 150.48-7.9L150.48-7.9Q150.18-7.85 150-7.83 149.83-7.8 149.73-7.8L149.73-7.8Q149.33-7.8 149.18-8.15L149.18-8.15Q149.23-8.45 149.73-8.7L149.73-8.7Q149.98-8.8 150.33-8.88 150.68-8.95 151.18-9.05L151.18-9.05Q151.73-9.15 152.15-9.2 152.58-9.25 152.78-9.3L152.78-9.3Q153.03-9.35 153.28-9.4 153.53-9.45 153.88-9.5L153.88-9.5Q154.18-9.55 154.53-9.6 154.88-9.65 155.28-9.75L155.28-9.75Q155.68-10.3 156.48-11.7 157.28-13.1 158.53-15.4L158.53-15.4Q159.53-17.25 160.15-18.32 160.78-19.4 161.03-19.75L161.03-19.75Q161.48-20.35 162.08-20.35L162.08-20.35Q162.38-20.35 162.38-20.1L162.38-20.1Q162.38-20.05 162.13-19.45L162.13-19.45Q161.83-18.95 161.13-17.6 160.43-16.25 159.63-14.65 158.83-13.05 158.18-11.65 157.53-10.25 157.28-9.6L157.28-9.6Q157.53-9.65 157.85-9.65 158.18-9.65 158.68-9.65L158.68-9.65Q159.23-9.65 159.7-9.63 160.18-9.6 160.53-9.55L160.53-9.55Q161.23-9.4 161.23-9.15L161.23-9.15Q161.23-9.05 160.78-8.8L160.78-8.8Q160.53-8.7 159.83-8.6 159.13-8.5 157.98-8.4L157.98-8.4Q157.68-8.4 157.33-8.38 156.98-8.35 156.58-8.3L156.58-8.3Q155.08-5.85 152.48-0.15L152.48-0.15Q151.53 1.75 151.03 2.8 150.53 3.85 150.43 4.05L150.43 4.05Q149.98 4.65 149.63 4.65ZM153.07 19.65L153.07 19.65Q152.52 19.65 152.22 18.65L152.22 18.65Q152.07 18.2 152.07 17.55L152.07 17.55Q152.07 14.75 154.67 10.95L154.67 10.95Q155.97 9.05 157.6 7 159.22 4.95 160.92 3.18 162.63 1.4 163.97 0.3L163.97 0.3Q164.47-0.1 164.85-0.8 165.22-1.5 165.47-2.23 165.72-2.95 165.72-3.3L165.72-3.3Q165.72-4 165.07-4L165.07-4Q164.67-4 163.92-3.65L163.92-3.65Q163.57-3.45 163.25-3.2 162.92-2.95 162.47-2.65L162.47-2.65 161.27-1.85Q160.82-1.55 160.47-1.55L160.47-1.55Q159.77-1.55 159.77-2.2L159.77-2.2Q159.77-2.65 160.27-3.15L160.27-3.15Q160.27-3.3 160.57-3.45L160.57-3.45Q161.82-4 163.32-5.4L163.32-5.4Q164.92-6.8 166.25-8.53 167.57-10.25 167.97-11.85L167.97-11.85Q168.13-12.6 168.13-13.05L168.13-13.05Q168.13-14.3 167.02-14.3L167.02-14.3Q165.27-14.3 163.35-12.93 161.42-11.55 159.88-9.8L159.88-9.8Q159.82-9.65 159.67-9.65L159.67-9.65Q159.42-9.65 159.42-10.05L159.42-10.05Q159.42-10.3 159.57-10.45L159.57-10.45Q160.57-11.7 161.88-12.85 163.17-14 164.6-14.78 166.02-15.55 167.32-15.55L167.32-15.55Q167.52-15.55 167.8-15.5 168.07-15.45 168.42-15.35L168.42-15.35Q169.88-14.9 169.88-13.35L169.88-13.35Q169.88-11.8 168.52-9.75L168.52-9.75Q167.27-7.95 164.02-5L164.02-5 165.82-5.85Q166.97-6.4 167.72-6.4L167.72-6.4Q168.13-6.4 168.32-6.2L168.32-6.2Q168.47-6 168.47-5.7L168.47-5.7Q168.47-5.3 168.32-5L168.32-5Q168.07-4.6 168.07-4.3L168.07-4.3Q168.07-3.75 168.63-3.75L168.63-3.75Q168.77-3.75 169.35-4 169.92-4.25 170.22-4.4L170.22-4.4Q170.77-4.7 171.2-4.98 171.63-5.25 171.97-5.5L171.97-5.5Q172.32-5.7 172.32-5.4L172.32-5.4Q172.17-5 171.72-4.75L171.72-4.75Q171.38-4.5 170.8-4.03 170.22-3.55 169.38-2.9L169.38-2.9 167.17-1.15Q166.72-0.75 166.02 0.55L166.02 0.55 164.42 3.6 163.82 4.7Q162.92 6.35 162.05 8.05 161.17 9.75 160.17 11.35L160.17 11.35Q156.67 17.35 154.72 18.8L154.72 18.8Q153.57 19.65 153.07 19.65ZM154.13 17.65L154.13 17.65Q154.52 17.65 154.88 17.3L154.88 17.3Q155.67 16.65 157.13 14.35L157.13 14.35Q158.77 11.85 160.32 9.05 161.88 6.25 162.67 4.2L162.67 4.2Q162.77 3.95 162.82 3.75 162.88 3.55 162.92 3.45L162.92 3.45Q163.02 3.15 163.02 3.1L163.02 3.1Q163.02 2.55 162.42 2.85L162.42 2.85Q162.22 2.95 162 3.1 161.77 3.25 161.52 3.5L161.52 3.5Q160.13 4.7 158.6 6.63 157.07 8.55 154.77 12.25L154.77 12.25Q154.13 13.3 153.77 14.48 153.42 15.65 153.42 16.5L153.42 16.5Q153.42 17.2 153.63 17.4L153.63 17.4Q153.88 17.65 154.13 17.65Z" fill="#2257bf" data-fill-palette-color="primary"></path></g></svg></g></svg></g></svg></g></svg></g><g transform="matrix(1,0,0,1,85.9707120947842,0)"><svg viewBox="0 0 223.57857581043157 223.57857581043157" height="223.57857581043157" width="223.57857581043157"><g><svg></svg></g><g id="icon-0"><svg viewBox="0 0 223.57857581043157 223.57857581043157" height="223.57857581043157" width="223.57857581043157"><g><path d="M0 111.789c0-61.74 50.05-111.789 111.789-111.789 61.74 0 111.789 50.05 111.79 111.789 0 61.74-50.05 111.789-111.79 111.79-61.74 0-111.789-50.05-111.789-111.79zM111.789 213.311c56.069 0 101.522-45.453 101.522-101.522 0-56.069-45.453-101.522-101.522-101.521-56.069 0-101.522 45.453-101.521 101.521 0 56.069 45.453 101.522 101.521 101.522z" data-fill-palette-color="accent" fill="#2257bf" stroke="transparent"></path></g><g transform="matrix(1,0,0,1,50.54128901173837,50.57956901104679)"><svg viewBox="0 0 122.49599778695483 122.41943778833799" height="122.41943778833799" width="122.49599778695483"><g><svg xmlns="http://www.w3.org/2000/svg" xmlns:xlink="http://www.w3.org/1999/xlink" version="1.1" x="0" y="0" viewBox="0 0 100 99.9375" xml:space="preserve" height="122.41943778833799" width="122.49599778695483" class="icon-cg-0" data-fill-palette-color="accent" id="cg-0"><path d="M100 0C93.933 0 86.238 3.957 78.938 9.188L63.813 24.219 45.094 22.469 47.125 20.438C47.404 20.158 47.404 19.717 47.125 19.438L45.281 17.594C45.002 17.314 44.561 17.314 44.281 17.594L39.906 21.969 30.313 21.063 32.5 18.875C32.779 18.595 32.779 18.123 32.5 17.844L30.656 16.031C30.377 15.752 29.936 15.752 29.656 16.031L25.094 20.594 9.281 19.125 4.281 24.469 21.344 29.781 36.25 35.281 46.344 41.625 32.156 55.719C27.362 62.053 23.458 68.141 20.469 73.188L2.281 71.781 0 74.063 15.188 82.719C14.283 84.487 13.781 85.531 13.781 85.531 13.781 85.531 14.834 85.058 16.594 84.188L24.938 99.938 27.063 97.813 26.25 78.969C31.32 76.024 37.42 72.178 43.781 67.375L57.906 53.219 63.875 62.563 69.531 77.125 75.25 95.344 80.438 90.219 78.781 72.219 82.313 68.688C82.591 68.408 82.591 67.936 82.313 67.656L80.469 65.844C80.188 65.564 79.747 65.564 79.469 65.844L78.281 67.031 77.656 60.281 82.313 55.625C82.591 55.346 82.591 54.903 82.313 54.625L80.469 52.781C80.188 52.502 79.747 52.502 79.469 52.781L77.156 55.094 75.375 35.781 90.844 20.281C96.054 13.174 100 5.733 100 0z" fill="#2257bf" data-fill-palette-color="accent"></path></svg></g></svg></g></svg></g></svg></g><g></g></svg></g><defs></defs></svg><rect width="249.93440680098556" height="247.2" fill="none" stroke="none" visibility="hidden"></rect></g></svg></g></svg>